Coordinates
version=1
nRows=8
nColumns=40
inDegrees=yes

Units are S.I. units (second, meters, Newtons, ...)
Angles are in degrees.

endheader
time	pelvis_tilt	pelvis_list	pelvis_rotation	pelvis_tx	pelvis_ty	pelvis_tz	hip_flexion_r	hip_adduction_r	hip_rotation_r	knee_angle_r	knee_angle_r_beta	ankle_angle_r	subtalar_angle_r	mtp_angle_r	hip_flexion_l	hip_adduction_l	hip_rotation_l	knee_angle_l	knee_angle_l_beta	ankle_angle_l	subtalar_angle_l	mtp_angle_l	lumbar_extension	lumbar_bending	lumbar_rotation	arm_flex_r	arm_add_r	arm_rot_r	elbow_flex_r	pro_sup_r	wrist_flex_r	wrist_dev_r	arm_flex_l	arm_add_l	arm_rot_l	elbow_flex_l	pro_sup_l	wrist_flex_l	wrist_dev_l
     31.33000000	     -0.06986964	     -3.83716288	     -3.68983400	      1.07014015	      0.92616497	      0.46418367	     18.10474352	      0.09436440	     -7.28274814	     24.27769844	     24.27769844	      8.18475935	     -2.30840326	     -3.04503515	      1.32435987	     -8.82321068	    -10.02431453	     30.90873880	     30.90873880	     17.85044443	    -13.37681704	     -2.30923122	     -9.70898316	      3.76321008	      0.32375007	     -2.40750089	    -13.91973812	     -7.90599927	     37.70512386	     46.12547552	      0.00000000	      0.00000000	     11.62062775	    -17.27617872	     -7.39172073	     61.26224932	     47.20274950	      0.00000000	      0.00000000
     31.34285714	     -0.05277485	     -3.97053242	     -3.28562240	      1.07036799	      0.92649824	      0.46685543	     17.58717399	      0.28575438	     -7.79814893	     24.16957906	     24.16957906	      8.54024564	     -2.06719713	     -3.16180748	      3.24283890	     -9.56720308	     -9.01624683	     34.87954020	     34.87954020	     16.44827530	    -14.78241465	     -3.02750160	     -9.73556225	      3.93786498	      0.34565399	     -1.45301193	    -13.87604643	     -7.54706284	     38.37228834	     46.08176792	      0.00000000	      0.00000000	     11.34703899	    -16.99475871	     -7.32016428	     60.28149770	     47.18129338	      0.00000000	      0.00000000
     31.35571429	     -0.02680483	     -4.16140026	     -2.85237420	      1.07034799	      0.92676745	      0.46945215	     17.04959932	      0.52512895	     -8.40021110	     24.02257041	     24.02257041	      8.90588153	     -1.75497983	     -3.29152977	      5.33312328	    -10.35538560	     -7.94926947	     39.02549345	     39.02549345	     14.90575270	    -16.01630767	     -3.52076563	     -9.83475470	      4.16487778	      0.41151233	     -0.45249337	    -13.89903725	     -7.19403804	     39.07915826	     46.03824881	      0.00000000	      0.00000000	     11.14000742	    -16.69761852	     -7.24647343	     59.29654722	     47.16011570	      0.00000000	      0.00000000
     31.36857143	     -0.04455823	     -4.28816589	     -2.42706218	      1.07009882	      0.92692786	      0.47180292	     16.59080349	      0.65161890	     -9.11253562	     23.90534182	     23.90534182	      9.29963885	     -1.17892180	     -3.40470055	      7.60158653	    -10.98750793	     -6.84975360	     43.20342044	     43.20342044	     13.40382020	    -17.04864971	     -3.32985262	     -9.84660069	      4.35860636	      0.77168714	     -0.06027726	    -14.54243730	     -4.84241339	     41.08798787	     45.82116404	      0.00000000	      0.00000000	     11.79114681	    -16.00721740	     -7.41489103	     56.32217318	     47.13819175	      0.00000000	      0.00000000
     31.38142857	      0.04365486	     -4.53461402	     -1.99871873	      1.06971270	      0.92717713	      0.47410537	     15.98458006	      0.96432482	     -9.67346821	     23.69594919	     23.69594919	      9.59903254	     -0.93167586	     -3.49034316	      9.79816057	    -11.73394293	     -5.83830810	     47.24506893	     47.24506893	     11.89760335	    -17.70156960	     -3.16171264	    -10.08876478	      4.61901302	      0.96038983	      1.10867887	    -14.64664047	     -4.76571956	     41.69082417	     45.80082997	      0.00000000	      0.00000000	     11.44881580	    -15.71533283	     -7.27031483	     55.86111591	     47.11670733	      0.00000000	      0.00000000
     31.39428571	     -0.09147819	     -4.63741160	     -1.54874173	      1.06905314	      0.92715517	      0.47595776	     15.66222947	      1.03640897	    -10.45737192	     23.52851856	     23.52851856	      9.92433111	     -0.26015484	     -3.65812187	     12.45423651	    -12.07227343	     -4.54038709	     51.40890677	     51.40890677	     12.05865758	    -17.75968366	      1.52005877	    -10.02106085	      4.80488305	      1.08750981	      1.89332416	    -15.15157614	     -3.30240926	     43.30981807	     45.66391524	      0.00000000	      0.00000000	     11.46099492	    -15.25199263	     -7.42399097	     53.55280786	     47.09626110	      0.00000000	      0.00000000
     31.40714286	      0.01444594	     -4.84538336	     -1.15557719	      1.06839623	      0.92746448	      0.47789976	     15.06488687	      1.32191663	    -10.90979198	     23.30678574	     23.30678574	     10.23706875	     -0.08379002	     -3.72804001	     14.54941432	    -12.63235828	     -3.70193494	     54.69182587	     54.69182587	     10.70813442	    -18.09915284	      1.81719643	    -10.31772293	      5.02608547	      1.41845496	      3.20064861	    -15.38583420	     -3.31545632	     43.87072164	     45.65167294	      0.00000000	      0.00000000	     11.11109365	    -14.87893078	     -7.30161998	     53.15288921	     47.07676023	      0.00000000	      0.00000000
     31.42000000	     -0.11636938	     -4.93709408	     -0.75636745	      1.06756274	      0.92754959	      0.47940852	     14.70913109	      1.40915373	    -11.57749819	     23.03623528	     23.03623528	     10.49036670	      0.50087356	     -3.83747893	     17.05167157	    -12.80830815	     -2.64185910	     57.93155089	     57.93155089	     11.36149846	    -17.90186065	      6.93115775	    -10.24722464	      5.19004840	      1.53061331	      4.15585265	    -15.89544644	     -2.05983348	     45.17470585	     45.54890552	      0.00000000	      0.00000000	     11.00389781	    -14.34358567	     -7.74156497	     50.83859896	     47.07563911	      0.00000000	      0.00000000
